<svg xmlns="http://www.w3.org/2000/svg" width="1600" height="900" viewBox="0 0 1600 900" role="img" aria-label="Abstract daily hero for 2026-03-19">
  <defs>
    <linearGradient id="bg" x1="0" y1="0" x2="1" y2="1">
      <stop offset="0%" stop-color="#0b1020"/>
      <stop offset="100%" stop-color="#1e3a8a"/>
    </linearGradient>
    <filter id="blur" x="-20%" y="-20%" width="140%" height="140%">
      <feGaussianBlur stdDeviation="38"/>
    </filter>
  </defs>
  <rect width="1600" height="900" fill="url(#bg)"/>
  <circle cx="384" cy="378" r="310" fill="#22d3ee" opacity="0.28" filter="url(#blur)"/>
  <circle cx="528" cy="243" r="408" fill="#a78bfa" opacity="0.24" filter="url(#blur)"/>
  <circle cx="1088" cy="90" r="226" fill="#f0f9ff" opacity="0.22" filter="url(#blur)"/>
  <line x1="109" y1="0" x2="197" y2="88" stroke="#a78bfa" stroke-opacity="0.21" stroke-width="1"/>
  <line x1="144" y1="86" x2="189" y2="87" stroke="#f0f9ff" stroke-opacity="0.32" stroke-width="4"/>
  <line x1="65" y1="163" x2="235" y2="59" stroke="#22d3ee" stroke-opacity="0.19" stroke-width="1"/>
  <line x1="74" y1="39" x2="28" y2="76" stroke="#a78bfa" stroke-opacity="0.14" stroke-width="4"/>
  <line x1="11" y1="81" x2="10" y2="109" stroke="#f0f9ff" stroke-opacity="0.25" stroke-width="1"/>
  <line x1="100" y1="244" x2="95" y2="144" stroke="#22d3ee" stroke-opacity="0.17" stroke-width="3"/>
  <line x1="9" y1="116" x2="113" y2="65" stroke="#a78bfa" stroke-opacity="0.11" stroke-width="4"/>
  <line x1="4" y1="114" x2="130" y2="74" stroke="#f0f9ff" stroke-opacity="0.12" stroke-width="4"/>
  <line x1="197" y1="88" x2="104" y2="11" stroke="#22d3ee" stroke-opacity="0.20" stroke-width="2"/>
  <line x1="189" y1="87" x2="179" y2="100" stroke="#a78bfa" stroke-opacity="0.27" stroke-width="1"/>
  <line x1="235" y1="59" x2="248" y2="9" stroke="#f0f9ff" stroke-opacity="0.19" stroke-width="1"/>
  <line x1="28" y1="76" x2="139" y2="4" stroke="#22d3ee" stroke-opacity="0.10" stroke-width="3"/>
  <line x1="10" y1="109" x2="0" y2="197" stroke="#a78bfa" stroke-opacity="0.10" stroke-width="1"/>
  <line x1="95" y1="144" x2="86" y2="189" stroke="#f0f9ff" stroke-opacity="0.33" stroke-width="4"/>
  <line x1="113" y1="65" x2="163" y2="235" stroke="#22d3ee" stroke-opacity="0.24" stroke-width="4"/>
  <line x1="130" y1="74" x2="39" y2="28" stroke="#a78bfa" stroke-opacity="0.19" stroke-width="1"/>
  <line x1="104" y1="11" x2="81" y2="10" stroke="#f0f9ff" stroke-opacity="0.10" stroke-width="2"/>
  <line x1="179" y1="100" x2="244" y2="95" stroke="#22d3ee" stroke-opacity="0.18" stroke-width="1"/>
  <line x1="248" y1="9" x2="116" y2="113" stroke="#a78bfa" stroke-opacity="0.17" stroke-width="2"/>
  <line x1="139" y1="4" x2="114" y2="130" stroke="#f0f9ff" stroke-opacity="0.23" stroke-width="3"/>
  <line x1="0" y1="197" x2="88" y2="104" stroke="#22d3ee" stroke-opacity="0.13" stroke-width="4"/>
  <line x1="86" y1="189" x2="87" y2="179" stroke="#a78bfa" stroke-opacity="0.20" stroke-width="1"/>
  <line x1="163" y1="235" x2="59" y2="248" stroke="#f0f9ff" stroke-opacity="0.22" stroke-width="2"/>
  <line x1="39" y1="28" x2="76" y2="139" stroke="#22d3ee" stroke-opacity="0.20" stroke-width="1"/>
  <line x1="81" y1="10" x2="109" y2="0" stroke="#a78bfa" stroke-opacity="0.20" stroke-width="2"/>
  <line x1="244" y1="95" x2="144" y2="86" stroke="#f0f9ff" stroke-opacity="0.19" stroke-width="2"/>
  <line x1="116" y1="113" x2="65" y2="163" stroke="#22d3ee" stroke-opacity="0.17" stroke-width="4"/>
  <polygon points="10,109 0,197 88,104" fill="#f0f9ff" fill-opacity="0.19"/>
  <polygon points="95,144 86,189 87,179" fill="#22d3ee" fill-opacity="0.17"/>
  <polygon points="113,65 163,235 59,248" fill="#a78bfa" fill-opacity="0.17"/>
  <polygon points="130,74 39,28 76,139" fill="#f0f9ff" fill-opacity="0.12"/>
  <polygon points="104,11 81,10 109,0" fill="#22d3ee" fill-opacity="0.10"/>
  <polygon points="179,100 244,95 144,86" fill="#a78bfa" fill-opacity="0.15"/>
  <polygon points="248,9 116,113 65,163" fill="#f0f9ff" fill-opacity="0.9"/>
  <polygon points="139,4 114,130 74,39" fill="#22d3ee" fill-opacity="0.10"/>
  <polygon points="0,197 88,104 11,81" fill="#a78bfa" fill-opacity="0.18"/>
</svg>
